<?xml version="1.0" standalone="no"?>
<!DOCTYPE svg PUBLIC "-//W3C//DTD SVG 20010904//EN"
 "http://www.w3.org/TR/2001/REC-SVG-20010904/DTD/svg10.dtd">
<svg version="1.0" xmlns="http://www.w3.org/2000/svg"
 width="956.000000pt" height="956.000000pt" viewBox="0 0 956.000000 956.000000"
 preserveAspectRatio="xMidYMid meet">
<metadata>
Created by potrace 1.14, written by Peter Selinger 2001-2017
</metadata>
<g transform="translate(0.000000,956.000000) scale(0.100000,-0.100000)"
fill="#000000" stroke="none">
<path d="M6526 8612 c-2 -1 -25 -5 -52 -7 -43 -5 -94 -13 -184 -30 -96 -18
-180 -40 -209 -55 l-35 -17 26 -24 c14 -13 48 -35 74 -49 82 -43 165 -93 161
-97 -3 -2 -15 1 -28 6 -13 6 -71 28 -129 49 -58 22 -114 43 -125 48 -11 4 -22
8 -25 9 -3 1 -36 11 -75 23 -38 11 -86 24 -105 27 -19 3 -43 8 -52 11 -47 14
-220 27 -363 27 -114 0 -370 -9 -370 -14 0 0 -18 -3 -40 -4 -66 -6 -189 -21
-245 -31 -14 -3 -43 -7 -65 -10 -77 -11 -90 -13 -90 -14 0 -1 -11 -3 -25 -6
-73 -13 -242 -47 -291 -60 -30 -7 -66 -16 -80 -18 -13 -2 -24 -5 -24 -7 0 -1
-9 -3 -20 -4 -11 -2 -76 -19 -144 -40 -380 -112 -626 -222 -901 -403 -80 -52
-153 -102 -162 -111 -10 -9 -29 -25 -43 -36 -116 -89 -250 -211 -371 -335
-149 -154 -198 -217 -189 -241 13 -34 52 -47 170 -55 110 -8 148 -31 87 -52
-28 -10 -151 -8 -242 3 -117 14 -151 17 -230 19 -165 5 -283 -32 -366 -112
-57 -55 -100 -105 -114 -133 -7 -13 -16 -26 -20 -29 -6 -4 -27 -38 -100 -160
-42 -70 -120 -213 -120 -221 0 -5 -4 -9 -8 -9 -4 0 -15 -15 -23 -32 -23 -50
-77 -144 -131 -231 -26 -43 -48 -81 -48 -84 0 -3 -20 -36 -45 -74 -25 -38 -45
-71 -45 -74 0 -3 -4 -11 -10 -18 -5 -7 -53 -77 -106 -156 -52 -79 -100 -149
-105 -155 -5 -6 -37 -49 -70 -96 -63 -88 -75 -105 -132 -181 -42 -55 -297
-406 -317 -436 -8 -12 -34 -49 -57 -82 -24 -33 -43 -65 -43 -70 0 -5 -4 -11
-9 -13 -11 -4 -107 -173 -145 -252 -26 -57 -74 -190 -82 -231 -2 -11 -7 -36
-10 -55 -3 -19 -7 -41 -10 -49 -5 -17 -5 -203 0 -243 10 -70 19 -117 33 -168
8 -30 15 -59 17 -65 10 -44 29 -96 75 -205 17 -41 31 -80 31 -87 0 -6 3 -13 8
-15 4 -1 23 -34 42 -73 32 -63 159 -264 184 -291 6 -7 27 -31 46 -55 42 -54
203 -215 248 -249 18 -14 43 -34 55 -44 59 -51 247 -165 372 -225 156 -76 211
-101 218 -101 2 0 22 -8 43 -17 22 -9 41 -17 44 -18 3 -1 16 -6 30 -12 14 -6
45 -19 70 -29 315 -127 485 -285 640 -599 36 -71 65 -132 66 -135 3 -16 102
-252 114 -270 13 -21 18 -12 45 86 33 127 73 222 174 418 87 169 155 326 165
378 2 15 7 32 11 38 4 6 8 23 11 38 3 15 11 59 19 97 8 39 17 95 21 125 10 75
10 452 1 520 -19 127 -48 268 -76 370 -12 41 -24 84 -26 94 -3 11 -23 79 -46
150 -23 72 -42 136 -44 141 -1 6 -5 17 -8 25 -8 20 -27 83 -32 106 -3 10 -14
51 -25 89 -12 39 -23 77 -25 85 -2 8 -12 49 -23 90 -11 41 -18 78 -16 82 3 4
0 8 -6 8 -6 0 -9 4 -6 9 4 5 2 20 -3 33 -5 13 -11 43 -15 68 -3 25 -10 60 -15
78 -5 18 -10 36 -10 40 0 14 -14 118 -18 137 -38 193 -48 638 -18 816 2 13 6
44 9 69 6 56 21 97 29 83 3 -5 9 -61 12 -124 3 -63 7 -161 10 -219 3 -58 7
-130 10 -160 3 -30 7 -84 10 -120 4 -36 8 -81 11 -100 3 -19 7 -53 10 -75 4
-36 26 -174 39 -250 3 -16 10 -52 17 -80 6 -27 13 -59 14 -70 1 -11 3 -20 4
-20 2 0 6 -16 14 -55 6 -25 19 -80 21 -90 1 -3 5 -18 9 -35 21 -80 58 -212 63
-225 3 -8 7 -19 8 -25 0 -5 4 -17 8 -25 3 -8 13 -37 21 -65 8 -27 35 -117 61
-200 26 -82 49 -157 50 -165 2 -8 4 -16 5 -17 2 -2 3 -6 4 -10 2 -5 8 -28 15
-53 7 -25 15 -53 17 -62 5 -23 13 -53 19 -76 7 -24 36 -152 41 -182 3 -14 7
-33 10 -42 3 -9 7 -25 9 -35 3 -16 17 -75 30 -123 2 -8 4 -16 5 -17 2 -2 3 -7
4 -12 0 -5 4 -13 9 -17 4 -4 7 -13 7 -20 0 -8 19 -57 42 -110 61 -143 139
-256 225 -324 71 -57 233 -160 252 -160 6 0 11 -4 11 -10 0 -5 5 -10 11 -10 7
0 44 -21 83 -47 76 -50 85 -56 121 -90 13 -13 27 -23 30 -23 3 0 42 -30 87
-67 138 -115 330 -313 411 -423 185 -250 292 -351 486 -459 37 -20 146 -60
199 -72 137 -31 319 -29 498 6 43 9 90 18 104 21 14 3 61 14 105 25 44 12 88
23 98 25 9 2 25 6 35 9 23 6 172 44 197 50 24 6 57 13 86 20 12 2 45 11 73 19
28 8 53 15 56 15 22 1 442 153 517 187 17 8 34 14 38 14 4 0 21 6 38 14 18 8
55 25 82 37 28 13 59 24 69 26 11 2 29 11 39 21 11 9 20 15 21 12 3 -7 180 72
184 82 2 4 10 8 17 8 7 0 49 18 94 40 44 22 85 40 90 40 5 0 11 3 13 8 2 4 50
31 108 61 127 66 355 202 465 279 81 56 190 158 236 222 27 37 64 128 75 182
13 67 14 74 29 233 3 28 12 77 20 110 9 33 17 67 19 76 3 9 13 47 25 85 88
298 69 542 -54 693 -25 32 -115 131 -136 151 -24 23 -49 65 -54 91 -3 13 -7
105 -10 204 -3 99 -7 216 -10 260 -7 131 -14 230 -15 230 -1 0 -3 23 -5 50 -8
93 -14 160 -19 185 -4 22 -16 115 -22 163 -1 9 -2 18 -4 20 -1 1 -3 11 -4 22
-9 63 -18 112 -22 126 -3 10 -7 32 -10 50 -8 54 -11 72 -18 99 -3 14 -8 36
-10 50 -3 14 -7 34 -9 45 -5 22 -47 221 -52 245 -2 8 -6 26 -9 40 -3 14 -8 36
-10 50 -3 14 -7 35 -10 46 -2 12 -14 66 -25 120 -12 55 -28 126 -36 159 -7 33
-16 74 -19 90 -3 17 -7 41 -11 55 -33 141 -45 242 -29 247 12 4 55 -77 79
-147 1 -3 5 -14 9 -25 19 -49 28 -75 51 -155 14 -47 28 -98 31 -114 3 -16 7
-33 10 -38 3 -4 7 -17 10 -28 2 -11 6 -28 8 -37 13 -56 76 -342 80 -363 2 -14
7 -36 10 -50 3 -14 8 -38 11 -55 3 -16 13 -66 21 -110 8 -44 16 -89 18 -100 4
-27 17 -105 22 -130 2 -11 7 -40 10 -65 11 -75 12 -85 14 -85 1 0 4 -13 6 -30
10 -63 46 -182 95 -308 49 -127 81 -234 92 -307 12 -81 28 -174 32 -180 2 -3
6 -17 9 -31 2 -13 11 -40 19 -59 8 -19 15 -39 15 -44 0 -5 4 -12 9 -15 4 -3
24 -28 42 -56 46 -68 135 -142 221 -187 132 -67 178 -60 158 25 -12 51 -16
244 -6 312 13 89 81 313 114 377 8 15 14 29 13 30 -1 4 19 53 47 115 13 28 24
54 24 56 0 3 21 49 46 104 84 178 104 223 104 232 0 5 3 11 8 13 11 5 99 191
171 362 69 163 130 362 146 476 3 25 9 59 12 75 12 66 18 336 9 415 -2 19 -7
62 -10 96 -4 33 -9 72 -11 85 -3 13 -8 39 -11 58 -3 18 -8 43 -11 55 -2 11 -8
37 -13 56 -20 82 -42 153 -70 222 -16 40 -30 77 -30 81 0 5 -9 22 -21 38 -11
16 -17 29 -14 29 3 0 -3 13 -14 29 -12 16 -21 32 -21 36 0 7 -102 157 -126
185 -135 158 -354 324 -599 455 -49 26 -96 52 -102 58 -7 5 -13 6 -13 2 0 -5
-8 -1 -17 7 -16 13 -167 86 -286 137 -177 76 -401 183 -424 203 -7 6 -13 8
-13 5 0 -4 -35 15 -77 42 -43 26 -89 54 -103 62 -14 8 -27 16 -30 19 -3 3 -30
21 -60 40 -30 19 -56 38 -58 42 -2 5 -8 8 -13 8 -6 0 -43 23 -84 50 -41 28
-78 50 -84 50 -5 0 -11 3 -13 8 -4 10 -69 46 -174 97 -77 38 -251 91 -304 94
-61 3 -212 5 -214 3z m-1912 -496 c47 -11 79 -32 118 -78 20 -24 49 -56 63
-73 59 -68 172 -248 230 -370 111 -228 184 -480 200 -685 4 -47 9 -101 10
-120 4 -40 14 -281 20 -515 5 -197 18 -362 30 -405 2 -8 6 -33 10 -54 9 -67
42 -182 64 -231 5 -11 24 -51 41 -90 32 -69 124 -210 175 -270 15 -16 48 -54
73 -83 26 -29 59 -70 73 -91 82 -123 217 -270 286 -314 44 -28 116 -54 171
-63 42 -7 54 -14 26 -15 -176 -7 -394 -113 -545 -262 -129 -127 -299 -325
-299 -346 0 -5 -4 -11 -8 -13 -23 -9 -122 -206 -147 -293 -17 -56 -22 -146
-10 -165 3 -5 8 -20 10 -32 6 -33 47 -118 57 -118 4 0 8 -6 8 -13 0 -22 108
-135 174 -180 141 -99 323 -171 486 -191 19 -3 60 -10 90 -16 90 -17 108 -20
168 -25 31 -3 66 -7 77 -9 11 -2 47 -7 80 -11 85 -9 163 -40 203 -77 59 -58
103 -165 105 -258 1 -88 -40 -147 -182 -260 -226 -179 -363 -324 -600 -634
-226 -296 -430 -364 -887 -296 -44 6 -86 12 -94 14 -8 1 -19 4 -25 7 -5 3 -21
3 -35 -1 -24 -6 -23 -8 20 -27 25 -11 63 -26 85 -34 42 -14 46 -15 83 -23 13
-3 32 -8 42 -11 10 -3 31 -7 46 -10 16 -2 52 -7 79 -11 66 -10 287 -11 350 -1
221 34 346 124 536 380 229 310 328 415 489 521 154 101 272 139 435 138 72 0
186 -13 335 -37 14 -2 54 -9 90 -14 36 -6 83 -13 105 -17 22 -3 54 -8 70 -9
17 -2 59 -7 95 -11 76 -8 240 -9 290 -2 65 10 140 44 140 64 0 19 -38 42 -80
49 -61 11 -83 13 -340 30 -85 6 -114 9 -255 30 -123 19 -150 23 -150 25 0 1
-13 3 -30 5 -16 2 -46 6 -65 10 -19 3 -51 8 -70 11 -42 6 -75 12 -75 14 0 1
-13 3 -29 5 -64 9 -163 46 -194 73 -30 27 -69 99 -77 145 -3 12 -10 44 -16 71
-23 96 3 213 70 309 16 23 97 112 181 197 157 160 205 221 259 328 l31 62 30
-15 c17 -9 30 -13 30 -11 0 3 20 -4 45 -15 51 -23 89 -27 271 -34 73 -2 163
-11 201 -20 65 -15 154 -52 161 -67 2 -5 9 -8 16 -8 19 0 102 -91 124 -135 18
-37 23 -54 38 -130 8 -36 7 -209 0 -280 -7 -64 -16 -139 -23 -190 -3 -22 -6
-85 -8 -141 -1 -56 -5 -106 -9 -112 -3 -6 -3 -13 1 -15 8 -5 8 -47 -1 -153 -7
-88 -58 -145 -201 -224 -33 -18 -76 -42 -95 -53 -161 -92 -527 -275 -750 -374
-80 -35 -159 -71 -176 -78 -60 -28 -280 -117 -409 -166 -71 -27 -139 -54 -150
-58 -31 -14 -58 -24 -75 -27 -8 -2 -23 -7 -35 -13 -22 -11 -333 -122 -350
-125 -5 -1 -23 -7 -40 -13 -69 -27 -264 -73 -430 -101 -54 -9 -251 -9 -297 0
-163 33 -317 138 -429 292 -18 26 -36 46 -41 46 -4 0 -8 5 -8 10 0 10 -27 42
-102 123 -21 22 -75 81 -120 131 -113 123 -371 381 -438 437 -64 54 -227 169
-239 169 -5 0 -15 7 -22 16 -7 9 -22 20 -34 25 -24 11 -58 31 -65 40 -3 3 -25
18 -49 34 -25 15 -51 32 -58 39 -8 6 -19 16 -26 21 -7 6 -30 23 -52 39 -72 53
-189 182 -238 263 -67 112 -183 409 -212 543 -4 19 -12 41 -17 47 -6 7 -8 13
-5 13 3 0 -5 34 -18 75 -12 41 -21 75 -19 75 2 0 -3 19 -12 42 -8 22 -12 43
-9 46 2 2 0 12 -5 22 -5 9 -11 28 -14 41 -2 13 -12 56 -21 94 -9 39 -18 79
-21 90 -2 11 -6 29 -9 40 -7 32 -66 317 -71 345 -2 14 -8 45 -14 70 -5 25 -14
79 -20 120 -7 41 -14 86 -17 100 -3 14 -7 45 -9 70 -2 25 -6 65 -10 90 -3 25
-8 63 -9 85 -2 22 -6 65 -9 95 -14 146 -18 206 -21 343 -2 81 -6 151 -10 156
-3 5 -1 12 5 16 6 4 7 11 3 18 -13 20 2 336 22 482 2 11 6 45 9 75 4 30 11 78
16 105 6 28 12 61 14 75 3 14 5 25 6 25 2 0 5 16 13 56 9 45 47 179 90 314 22
72 41 132 42 135 1 9 38 103 83 215 47 119 120 266 137 277 5 4 6 8 1 8 -4 0
3 15 18 34 14 19 26 37 26 41 0 3 4 11 10 18 5 7 34 43 62 81 79 102 203 224
303 299 28 20 56 42 64 48 29 25 220 137 301 176 156 76 317 134 408 147 19 2
36 7 39 9 7 7 233 1 267 -7z m1324 -468 c20 -20 13 -97 -19 -223 -17 -66 -35
-136 -39 -155 -5 -19 -11 -44 -14 -55 -6 -22 -32 -138 -40 -176 -2 -13 -9 -43
-14 -66 -5 -23 -7 -44 -5 -47 3 -2 1 -11 -3 -18 -5 -7 -9 -20 -11 -28 -1 -8
-5 -35 -9 -60 -4 -25 -8 -53 -10 -62 -1 -10 -3 -19 -4 -20 -1 -2 -3 -21 -5
-43 -2 -22 -5 -53 -8 -70 -14 -81 -27 -214 -42 -430 -9 -135 -17 -241 -21
-270 -2 -16 -6 -56 -9 -88 -3 -32 -7 -62 -9 -66 -3 -4 -8 -23 -11 -42 -7 -40
-32 -82 -44 -74 -5 2 -14 25 -20 50 -11 42 -15 80 -27 205 -5 57 -5 460 0 565
9 183 26 369 41 454 3 15 7 43 9 62 3 19 10 59 16 89 6 30 14 66 16 80 25 126
116 380 137 380 4 0 6 4 3 9 -9 14 88 111 110 111 11 0 25 -5 32 -12z m862
-512 c14 -3 39 -9 55 -12 59 -13 181 -66 265 -116 95 -57 187 -139 176 -157
-9 -13 -19 -11 -211 45 -82 24 -159 46 -170 48 -11 2 -38 9 -60 15 -22 5 -58
12 -80 15 -22 2 -42 5 -45 6 -3 1 -32 2 -65 1 -106 -2 -179 -33 -250 -105 -53
-55 -121 -179 -129 -237 -3 -19 -10 -50 -17 -69 -6 -19 -12 -99 -14 -178 -1
-78 -5 -145 -9 -147 -3 -3 -4 -2 -1 2 3 3 1 11 -4 17 -10 12 -24 76 -47 221
-15 92 -10 269 10 353 34 147 169 263 344 296 65 13 201 14 252 2z m230 -790
c204 -42 347 -123 400 -225 18 -36 26 -173 12 -196 -4 -5 -8 -19 -9 -29 -6
-36 -54 -123 -85 -155 -42 -43 -85 -65 -173 -87 -29 -7 -85 -16 -120 -19 -64
-6 -278 -6 -305 0 -14 3 -34 7 -45 9 -73 14 -153 73 -188 140 -35 67 -47 116
-53 219 -8 132 6 131 76 -6 54 -108 111 -166 208 -214 63 -31 85 -37 153 -39
170 -6 333 87 353 201 19 106 -94 219 -269 271 -67 19 -64 19 -155 28 -36 4
-89 9 -117 12 -62 6 -74 19 -42 42 49 36 149 59 244 56 50 -2 101 -5 115 -8z
m-318 -178 c31 -31 31 -62 -2 -93 -25 -24 -30 -25 -49 -13 -28 17 -45 65 -34
95 5 13 35 31 55 32 4 1 17 -9 30 -21z m-29 -922 c15 -3 39 -8 55 -11 285 -49
514 -188 685 -416 57 -76 20 -72 -79 8 -180 144 -364 258 -451 279 -15 4 -34
11 -40 17 -7 5 -13 6 -13 3 0 -4 -6 -4 -12 1 -7 4 -20 9 -28 10 -8 1 -37 7
-65 13 -161 34 -392 45 -515 23 -137 -24 -160 -26 -160 -12 0 28 73 65 166 83
68 14 393 15 457 2z m112 -281 c33 -9 66 -22 73 -27 6 -6 12 -8 12 -4 0 3 18
-5 40 -19 22 -14 40 -22 40 -18 0 5 4 3 8 -2 4 -6 25 -22 47 -36 68 -45 137
-111 127 -121 -13 -13 -61 3 -182 59 -217 102 -257 111 -517 112 -75 1 -93 4
-93 16 0 13 75 41 155 58 47 11 233 -1 290 -18z m-380 -480 c104 -17 134 -23
157 -36 21 -11 23 -25 6 -35 -6 -4 -45 -9 -87 -11 -94 -5 -87 -6 -141 3 -25 3
-93 7 -151 7 -96 1 -114 -2 -175 -28 -38 -16 -71 -32 -74 -35 -3 -3 -23 -17
-45 -30 -22 -13 -42 -27 -45 -31 -3 -3 -25 -16 -49 -28 -103 -53 -50 27 85
126 84 62 151 93 219 100 28 3 51 6 52 7 6 5 206 -2 248 -9z m519 -147 c82
-58 148 -163 171 -273 12 -59 13 -176 1 -249 -8 -51 -73 -170 -114 -208 -126
-119 -305 -129 -361 -20 -29 56 -11 200 39 309 49 105 121 152 162 106 20 -23
17 -117 -6 -191 -20 -64 -24 -144 -8 -150 11 -3 117 97 147 139 84 121 65 276
-55 449 -31 44 -60 100 -60 115 0 18 36 6 84 -27z m-1383 -522 c4 -214 18
-266 87 -339 50 -51 126 -78 232 -82 95 -3 205 19 215 43 7 20 11 17 -86 52
-102 37 -149 78 -154 135 -8 86 87 180 169 168 98 -14 189 -126 188 -232 0
-57 -3 -68 -26 -108 -16 -26 -89 -79 -106 -76 -3 0 -15 -3 -28 -8 -39 -15
-103 -22 -202 -22 -150 0 -210 15 -278 70 -126 102 -152 281 -65 432 24 41 27
43 39 26 8 -10 14 -37 15 -59z"/>
<path d="M4451 8063 c-12 -21 0 -58 42 -135 19 -35 66 -119 104 -188 146 -264
200 -402 391 -990 68 -207 96 -280 112 -280 10 0 7 92 -4 173 -4 20 -8 54 -11
75 -8 56 -24 154 -30 182 -3 14 -7 41 -10 60 -3 19 -9 50 -14 68 -5 17 -8 32
-6 32 3 0 1 10 -4 23 -5 13 -12 39 -15 58 -9 56 -75 278 -111 369 -81 210
-152 331 -269 457 -75 82 -157 127 -175 96z"/>
<path d="M3363 7064 c-71 -15 -110 -33 -136 -62 -18 -20 -18 -21 0 -39 17 -17
98 -39 203 -57 217 -36 382 -91 587 -197 379 -196 599 -429 814 -864 35 -71
66 -132 69 -135 3 -3 26 -45 51 -95 26 -49 51 -88 55 -85 21 12 -17 162 -73
290 -40 89 -108 229 -130 262 -12 21 -23 44 -23 53 0 8 -5 15 -10 15 -6 0 -15
11 -20 24 -12 32 -170 267 -223 331 -278 337 -539 509 -852 560 -77 13 -250
12 -312 -1z"/>
<path d="M3598 6105 c-2 -2 -24 -6 -51 -9 -26 -4 -58 -11 -72 -16 -14 -5 -25
-8 -25 -5 0 9 -142 -56 -196 -90 -108 -69 -280 -261 -314 -350 -7 -20 -6 -27
4 -31 16 -6 65 20 204 108 378 241 635 291 824 160 77 -54 134 -116 203 -223
85 -132 95 -148 95 -159 0 -5 5 -10 10 -10 6 0 10 -6 10 -13 0 -18 83 -130
115 -156 37 -28 58 -28 50 2 -4 12 -34 74 -68 137 -33 63 -85 165 -115 225
-73 149 -118 221 -172 278 -36 40 -117 99 -140 103 -3 0 -13 4 -22 7 -10 4
-26 10 -35 14 -24 8 -21 8 -78 17 -46 8 -221 16 -227 11z"/>
<path d="M3795 5364 c-104 -27 -164 -73 -294 -225 -35 -41 -73 -85 -84 -99
-33 -38 -103 -134 -116 -158 -21 -39 -13 -105 18 -153 61 -97 148 -141 285
-144 259 -7 519 141 610 347 47 107 20 220 -80 327 -97 105 -206 139 -339 105z
m100 -154 c25 -27 24 -86 -1 -105 -52 -39 -144 -64 -173 -45 -15 8 -6 90 9 90
5 0 11 9 15 19 8 27 64 61 101 61 18 0 38 -8 49 -20z"/>
<path d="M5230 5059 c-19 -5 -51 -10 -70 -12 -20 -3 -58 -12 -85 -22 -28 -9
-58 -18 -68 -20 -40 -9 -153 -71 -206 -114 -85 -69 -128 -124 -187 -241 -45
-90 -75 -173 -90 -250 -3 -14 -7 -32 -10 -41 -2 -9 -7 -39 -10 -65 l-4 -49 24
27 c14 14 48 75 76 135 82 172 120 245 156 294 36 50 101 109 143 131 14 7 28
15 31 19 5 5 69 33 80 35 3 0 25 6 50 14 70 21 63 19 195 39 149 23 211 40
236 67 l24 26 -23 18 c-19 16 -39 18 -125 18 -56 -1 -118 -5 -137 -9z"/>
<path d="M5396 4763 c-1 -1 -17 -5 -36 -8 -19 -3 -42 -8 -50 -10 -8 -2 -26 -6
-40 -9 -14 -2 -45 -10 -70 -17 -25 -7 -47 -13 -50 -14 -18 -3 -79 -39 -100
-58 -33 -30 -83 -124 -76 -143 5 -13 15 -9 55 20 27 20 53 36 59 36 6 0 12 4
14 8 9 22 122 62 360 127 69 19 91 41 63 61 -16 12 -118 17 -129 7z"/>
<path d="M3817 4054 c-3 -3 -16 -7 -29 -9 -12 -1 -61 -12 -108 -23 -128 -31
-153 -34 -306 -37 -147 -2 -254 7 -340 28 -66 17 -75 13 -63 -22 25 -71 104
-108 221 -105 66 2 202 12 253 19 17 3 46 7 65 9 46 7 89 15 120 23 14 3 27 7
30 8 60 15 180 79 180 97 0 10 -16 19 -23 12z"/>
<path d="M5059 3975 c-3 -2 -14 -6 -25 -8 -92 -16 -344 -203 -390 -289 -13
-26 -13 -28 3 -29 27 -2 45 2 81 17 18 7 36 14 40 16 4 1 12 6 17 10 6 5 33
23 60 40 69 44 225 202 225 228 0 20 -3 24 -11 15z"/>
<path d="M7629 3567 c-21 -16 -13 -34 24 -54 52 -27 127 -14 127 23 0 35 -115
58 -151 31z"/>
<path d="M7454 3562 c-23 -16 -5 -59 37 -86 27 -17 59 -13 59 8 0 33 -74 93
-96 78z"/>
<path d="M7277 3434 c-13 -13 16 -63 47 -79 34 -18 66 -15 66 6 0 18 -67 79
-87 79 -11 0 -22 -3 -26 -6z"/>
<path d="M7803 3424 c-16 -43 44 -124 93 -124 25 0 26 2 19 37 -11 59 -97 126
-112 87z"/>
<path d="M7596 3353 c-24 -24 28 -113 75 -128 32 -11 50 21 32 56 -26 53 -86
93 -107 72z"/>
<path d="M7425 3260 c-14 -22 36 -110 62 -110 7 0 13 -4 13 -9 0 -14 30 -7 40
9 11 18 -5 59 -38 93 -26 27 -65 36 -77 17z"/>
<path d="M7250 3161 c0 -29 44 -72 77 -74 24 -2 28 1 25 23 -6 51 -102 99
-102 51z"/>
<path d="M7061 3121 c-31 -20 23 -85 78 -96 46 -9 18 65 -36 93 -26 14 -24 14
-42 3z"/>
<path d="M7657 3087 c-9 -23 29 -91 60 -108 68 -38 84 13 27 84 -26 32 -78 47
-87 24z"/>
<path d="M7895 3070 c-21 -34 45 -130 91 -130 20 0 24 5 24 30 0 50 -95 133
-115 100z"/>
<path d="M7382 3018 c-24 -24 59 -103 96 -91 21 8 13 38 -16 66 -32 31 -64 41
-80 25z"/>
<path d="M7140 2935 c0 -26 29 -62 60 -75 55 -23 68 14 21 61 -32 32 -81 40
-81 14z"/>
<path d="M5731 2844 c-20 -26 -20 -44 0 -44 16 0 61 49 54 60 -11 17 -33 11
-54 -16z"/>
<path d="M7741 2856 c-10 -11 -9 -22 5 -48 34 -67 96 -100 109 -57 9 26 -37
96 -71 109 -32 12 -29 13 -43 -4z"/>
<path d="M5510 2842 c-8 -2 -30 -20 -47 -40 -50 -53 -42 -116 12 -89 30 15 64
55 71 83 7 29 -12 55 -36 46z"/>
<path d="M7545 2840 c-18 -29 38 -90 81 -90 42 0 28 46 -26 83 -28 19 -46 22
-55 7z"/>
<path d="M5310 2793 c-18 -6 -70 -64 -71 -78 0 -5 -2 -17 -4 -27 -5 -25 36
-31 65 -9 69 50 77 138 10 114z"/>
<path d="M5052 2762 c-42 -39 -58 -80 -39 -100 13 -12 19 -12 45 2 35 18 70
69 68 99 -2 34 -38 33 -74 -1z"/>
<path d="M7356 2764 c-8 -21 21 -62 57 -81 28 -14 32 -14 43 2 17 23 -5 57
-51 79 -41 20 -41 20 -49 0z"/>
<path d="M7070 2750 c-19 -35 63 -103 99 -81 20 13 -13 65 -55 85 -32 15 -34
14 -44 -4z"/>
<path d="M4852 2695 c-30 -25 -38 -40 -47 -84 -4 -21 3 -25 40 -21 35 4 86 71
81 107 -4 28 -40 27 -74 -2z"/>
<path d="M5904 2707 c-19 -10 -63 -55 -65 -66 0 -3 -2 -16 -5 -29 -5 -29 17
-38 54 -21 30 13 59 55 66 96 5 25 -21 36 -50 20z"/>
<path d="M6051 2674 c-44 -37 -42 -86 3 -62 29 16 41 30 44 55 5 33 -13 36
-47 7z"/>
<path d="M5763 2570 c-26 -10 -75 -71 -80 -98 -8 -53 67 -39 101 18 34 59 24
97 -21 80z"/>
<path d="M6230 2530 c-27 -27 -26 -50 1 -45 37 7 67 65 34 65 -8 0 -24 -9 -35
-20z"/>
<path d="M5520 2492 c-63 -63 -49 -126 19 -86 35 20 65 71 60 99 -7 34 -38 29
-79 -13z"/>
<path d="M6057 2437 c-34 -29 -44 -64 -20 -69 20 -4 44 15 62 49 14 27 14 30
-2 36 -8 3 -25 -5 -40 -16z"/>
<path d="M5348 2433 c-34 -21 -62 -76 -53 -103 8 -24 19 -25 53 -4 36 21 59
54 64 90 4 36 -23 43 -64 17z"/>
<path d="M5127 2402 c-31 -19 -68 -87 -60 -108 14 -38 87 4 113 65 10 25 10
34 0 46 -15 19 -19 18 -53 -3z"/>
<path d="M4878 2368 c-15 -13 -34 -39 -43 -60 -13 -32 -13 -37 1 -49 20 -17
60 6 92 52 43 62 6 104 -50 57z"/>
<path d="M5893 2339 c-30 -20 -63 -73 -63 -101 0 -31 48 -22 86 16 25 25 34
43 34 68 0 40 -15 44 -57 17z"/>
<path d="M6026 2193 c-28 -28 -32 -38 -15 -48 12 -8 59 33 59 51 0 25 -18 23
-44 -3z"/>
<path d="M5615 2167 c-55 -55 -58 -119 -6 -102 48 15 92 83 77 120 -9 24 -36
17 -71 -18z"/>
<path d="M5365 2089 c-48 -30 -86 -117 -52 -120 27 -3 43 4 69 28 38 36 51 78
32 98 -9 8 -16 15 -17 14 -1 0 -15 -9 -32 -20z"/>
<path d="M5815 2025 c-30 -29 -32 -45 -7 -45 23 0 52 30 52 53 0 24 -17 21
-45 -8z"/>
<path d="M4890 1993 c-26 -18 -53 -51 -56 -68 -1 -5 -3 -14 -4 -20 -9 -38 14
-45 61 -18 34 20 63 75 54 103 -8 24 -23 25 -55 3z"/>
<path d="M5108 1991 c-39 -22 -72 -85 -58 -110 8 -17 15 -18 39 -10 32 11 68
56 75 93 6 35 -20 48 -56 27z"/>
<path d="M5650 1943 c-32 -13 -72 -76 -68 -106 5 -36 43 -30 83 14 55 61 46
116 -15 92z"/>
<path d="M5347 1747 c-61 -57 -61 -123 0 -101 55 19 96 124 52 132 -9 2 -33
-12 -52 -31z"/>
</g>
</svg>
